<svg xmlns="http://www.w3.org/2000/svg" viewBox="0 0 240 300">
  <ellipse cx="120" cy="292" rx="62" ry="6" fill="#000000" opacity="0.18"/>
  <rect x="88" y="14" width="64" height="96" rx="12" fill="#1e1e1e"/>
  <rect x="88" y="190" width="64" height="96" rx="12" fill="#1e1e1e"/>
  <rect x="112" y="240" width="16" height="8" rx="4" fill="#3a3a3a"/>
  <rect x="112" y="256" width="16" height="8" rx="4" fill="#3a3a3a"/>
  <rect x="180" y="140" width="12" height="20" rx="3" fill="#bdbdbd"/>
  <circle cx="120" cy="150" r="64" fill="#d0d0d0"/>
  <circle cx="120" cy="150" r="53" fill="#ffffff"/>
  <g fill="#1e1e1e">
    <rect x="117" y="103" width="6" height="12" rx="2"/>
    <rect x="117" y="185" width="6" height="12" rx="2"/>
    <rect x="73" y="147" width="12" height="6" rx="2"/>
    <rect x="155" y="147" width="12" height="6" rx="2"/>
  </g>
  <path d="M120 150 L120 118" stroke="#1e1e1e" stroke-width="6" stroke-linecap="round"/>
  <path d="M120 150 L146 162" stroke="#1e1e1e" stroke-width="5" stroke-linecap="round"/>
  <path d="M120 150 L100 176" stroke="#14a800" stroke-width="3" stroke-linecap="round"/>
  <circle cx="120" cy="150" r="6" fill="#1e1e1e"/>
</svg>
