<?xml version="1.0" encoding="UTF-8"?>
<svg version="1.1" xmlns="http://www.w3.org/2000/svg" width="178" height="178">
<path d="M0 0 C18.90680704 14.72771097 31.88350299 35.17760248 35.4375 59.12109375 C37.219954 87.45842459 31.32182631 111.3397401 12.4375 133.12109375 C-1.25359549 148.3855611 -22.69898635 159.99745611 -43.37646484 161.2980957 C-73.10121997 161.9268597 -96.7947539 155.22837133 -118.75 134.24609375 C-136.99650372 115.30483337 -143.119683 91.31786566 -142.84375 65.71484375 C-142.17880222 42.33527978 -130.27003189 20.98124513 -113.6640625 4.984375 C-82.11664325 -22.98610638 -33.83743423 -24.81067967 0 0 Z " fill="#19A905" transform="translate(142.5625,16.87890625)"/>
<path d="M0 0 C1.89867208 1.04826907 3.64709953 1.52919306 5.76171875 1.97265625 C5.76171875 2.63265625 5.76171875 3.29265625 5.76171875 3.97265625 C6.29796875 4.17890625 6.83421875 4.38515625 7.38671875 4.59765625 C10.76993929 6.55636288 13.49011924 8.7661219 15.76171875 11.97265625 C16.44921875 15.59765625 16.44921875 15.59765625 15.76171875 18.97265625 C13.15452367 22.0538868 11.3888313 22.84250082 7.44921875 23.66015625 C2.81168196 22.79553075 0.94545258 20.83396016 -2.41015625 17.6640625 C-6.73852684 13.65939484 -11.08347129 13.65492577 -16.734375 13.78125 C-20.81395863 14.09310585 -24.59433105 14.66762469 -27.88671875 17.28125 C-30.0481996 19.98622459 -29.97175185 22.27259727 -29.80859375 25.64453125 C-28.64607292 30.39016425 -25.21666673 32.46454366 -21.23828125 34.97265625 C-17.71328346 36.94144351 -14.12816493 38.79164946 -10.53613281 40.63452148 C-0.69294379 45.71959175 7.25630468 51.64315409 12.13671875 61.84765625 C13.57915512 69.05983809 13.16097089 76.02745269 10.76171875 82.97265625 C9.27671875 83.46765625 9.27671875 83.46765625 7.76171875 83.97265625 C7.47296875 84.73578125 7.18421875 85.49890625 6.88671875 86.28515625 C5.48386814 89.63641048 3.74118072 90.96151942 0.76171875 92.97265625 C0.10171875 92.97265625 -0.55828125 92.97265625 -1.23828125 92.97265625 C-1.23828125 93.63265625 -1.23828125 94.29265625 -1.23828125 94.97265625 C-7.02592896 97.4530767 -12.14387915 98.27360864 -18.42578125 98.28515625 C-19.10253906 98.2903125 -19.77929688 98.29546875 -20.4765625 98.30078125 C-24.77325362 98.24180706 -28.24466314 97.51678119 -32.23828125 95.97265625 C-33.0375 95.70066406 -33.83671875 95.42867188 -34.66015625 95.1484375 C-42.81672439 92.12393824 -50.45897953 87.57941951 -56.23828125 80.97265625 C-56.80078125 77.53515625 -56.80078125 77.53515625 -56.23828125 73.97265625 C-54.0167777 70.98949434 -52.65158369 69.19171813 -48.89453125 68.609375 C-45.37796446 69.09031722 -43.693985 70.52732245 -40.92578125 72.72265625 C-31.66089296 79.68057502 -26.0637555 81.86763631 -14.23828125 80.97265625 C-12.23397908 80.66625144 -10.23215 80.34089327 -8.23828125 79.97265625 C-7.74328125 78.48765625 -7.74328125 78.48765625 -7.23828125 76.97265625 C-6.57828125 76.97265625 -5.91828125 76.97265625 -5.23828125 76.97265625 C-5.29888064 75.24254368 -5.38782776 73.51341286 -5.48828125 71.78515625 C-5.5346875 70.82222656 -5.58109375 69.85929687 -5.62890625 68.8671875 C-6.66061128 63.9665886 -9.16041585 61.68104717 -13.26953125 58.98046875 C-14.41421875 58.35914063 -15.55890625 57.7378125 -16.73828125 57.09765625 C-17.98962151 56.40241246 -19.2409229 55.70709869 -20.4921875 55.01171875 C-22.84811573 53.72380324 -25.21124655 52.45146548 -27.578125 51.18359375 C-33.92099787 47.6802163 -39.21414317 44.13638887 -43.23828125 37.97265625 C-43.23828125 37.31265625 -43.23828125 36.65265625 -43.23828125 35.97265625 C-43.89828125 35.97265625 -44.55828125 35.97265625 -45.23828125 35.97265625 C-47.65363964 29.48138058 -47.8923828 22.85034165 -47.23828125 15.97265625 C-46.57828125 15.31265625 -45.91828125 14.65265625 -45.23828125 13.97265625 C-44.94953125 13.19019531 -44.66078125 12.40773438 -44.36328125 11.6015625 C-41.78703564 5.58137745 -35.5204099 1.25481062 -29.73828125 -1.52734375 C-20.56759646 -4.74210649 -8.55040705 -4.83887133 0 0 Z " fill="#F5FBF4" transform="translate(108.23828125,47.02734375)"/>
<path d="M0 0 C3.88925939 3.38461276 5.85645272 7.12822975 8.0625 11.6875 C8.41175537 12.40067383 8.76101074 13.11384766 9.12084961 13.84863281 C15.72531581 27.54655422 15.72531581 27.54655422 14 33 C13.64808594 31.98421875 13.29617187 30.9684375 12.93359375 29.921875 C10.08624148 21.91473388 7.01828925 14.73053091 2.41796875 7.55078125 C0.98765158 4.97778644 0.4021638 2.89871309 0 0 Z " fill="#BAE5B4" transform="translate(161,37)"/>
<path d="M0 0 C0.66 0.33 1.32 0.66 2 1 C0.38113585 2.67262717 -1.2452729 4.33795537 -2.875 6 C-3.77992187 6.928125 -4.68484375 7.85625 -5.6171875 8.8125 C-8 11 -8 11 -10 11 C-8.55218207 7.55571735 -6.72305391 5.63869038 -3.875 3.25 C-3.15054688 2.63640625 -2.42609375 2.0228125 -1.6796875 1.390625 C-0.84824219 0.70226563 -0.84824219 0.70226563 0 0 Z " fill="#C6EAC1" transform="translate(74,48)"/>
<path d="M0 0 C-1.51398455 3.78496138 -2.0144396 4.0072198 -6 6 C-5.67 8.97 -5.34 11.94 -5 15 C-5.66 14.67 -6.32 14.34 -7 14 C-7.7833257 6.01007787 -7.7833257 6.01007787 -4.625 1.9375 C-2 0 -2 0 0 0 Z " fill="#5AC24C" transform="translate(85,61)"/>
<path d="M0 0 C2.33524782 2.25740623 4.18705073 4.2805761 6 7 C5.625 9.1875 5.625 9.1875 5 11 C4.16151196 9.54462432 3.32936066 8.08559627 2.5 6.625 C1.80390625 5.40683594 1.80390625 5.40683594 1.09375 4.1640625 C0 2 0 2 0 0 Z " fill="#A1DC99" transform="translate(161,37)"/>
</svg>
